<svg width="230" height="230" viewBox="0 0 230 230" fill="none" xmlns="http://www.w3.org/2000/svg">
<path d="M109.984 207.156L113.913 219.871L112.942 219.844L109.213 207.692L109.699 207.706L105.169 219.626L104.287 219.601L100.468 207.447L100.936 207.46L96.496 219.382L95.5964 219.357L100.214 206.882L101.186 206.909L104.89 218.663L104.656 218.657L109.013 207.129L109.984 207.156Z" fill="#888888"/>
<path d="M89.6302 205.614L86.8056 217.893L85.9109 217.687L88.7356 205.408L89.6302 205.614Z" fill="#888888"/>
<path d="M80.3489 202.483L76.1476 213.48L80.3849 215.099L80.0894 215.872L70.7573 212.307L71.0528 211.533L75.2901 213.152L79.4913 202.155L80.3489 202.483Z" fill="#888888"/>
<path d="M59.5927 206.126L58.7887 205.683L64.8711 194.649L65.675 195.092L59.5927 206.126ZM73.0525 199.158L73.8565 199.601L67.7741 210.636L66.9701 210.193L73.0525 199.158ZM62.687 200.289L70.2536 204.46L69.8626 205.169L62.296 200.998L62.687 200.289Z" fill="#888888"/>
<path d="M52.655 185.455L43.7809 194.4L43.2314 193.855L44.9305 179.389L45.2244 179.681L37.1489 187.821L36.4972 187.174L45.3714 178.229L45.9081 178.762L44.2217 193.24L43.9278 192.949L52.0033 184.809L52.655 185.455Z" fill="#888888"/>
<path d="M25.9522 159.924C26.0521 160.102 26.0775 160.294 26.0283 160.5C25.9628 160.702 25.8359 160.856 25.6475 160.962C25.4487 161.074 25.2513 161.102 25.0552 161.047C24.8533 160.981 24.7024 160.86 24.6025 160.682C24.4967 160.494 24.4714 160.301 24.5264 160.105C24.5815 159.909 24.7084 159.755 24.9072 159.644C25.0955 159.538 25.2929 159.51 25.4995 159.559C25.6955 159.614 25.8464 159.736 25.9522 159.924Z" fill="#888888"/>
<path d="M25.5278 139.861L14.2648 146.95L14.0394 146.004L24.8097 139.255L24.9224 139.727L12.2361 138.44L12.0316 137.582L22.781 130.745L22.8896 131.2L10.2241 130.001L10.0154 129.125L23.2612 130.353L23.4866 131.298L13.0931 137.921L13.0389 137.694L25.3024 138.915L25.5278 139.861Z" fill="#888888"/>
<path d="M20.168 118.15L7.62506 119.348L7.5378 118.434L20.0807 117.236L20.168 118.15Z" fill="#888888"/>
<path d="M20.0718 106.06L8.31101 105.546L8.11315 110.078L7.28594 110.042L7.7217 100.062L8.54891 100.098L8.35105 104.629L20.1118 105.143L20.0718 106.06Z" fill="#888888"/>
<path d="M11.1732 84.7198L11.395 83.829L23.6215 86.874L23.3997 87.7648L11.1732 84.7198ZM21.3639 95.9391L21.1421 96.8299L8.91553 93.7849L9.13738 92.8941L21.3639 95.9391ZM17.6095 86.2114L15.5215 94.5953L14.7355 94.3996L16.8235 86.0157L17.6095 86.2114Z" fill="#888888"/>
<path d="M27.991 74.3535L16.7015 68.7582L17.0452 68.0647L31.3073 65.1086L31.1234 65.4795L20.8499 60.3879L21.2576 59.5653L32.5471 65.1606L32.2114 65.838L17.9413 68.8102L18.1252 68.4393L28.3987 73.531L27.991 74.3535Z" fill="#888888"/>
<path d="M39.7906 43.642C39.6534 43.793 39.4791 43.8777 39.2676 43.8963C39.0553 43.8979 38.8692 43.8261 38.7094 43.6808C38.5407 43.5274 38.4515 43.349 38.4418 43.1456C38.4402 42.9333 38.508 42.7517 38.6452 42.6007C38.7905 42.4409 38.9649 42.3561 39.1683 42.3464C39.3717 42.3368 39.5577 42.4086 39.7265 42.562C39.8863 42.7073 39.9755 42.8856 39.9941 43.0971C40.0037 43.3006 39.9359 43.4822 39.7906 43.642Z" fill="#888888"/>
<path d="M60.7629 36.0251L49.3916 29.1108L50.1371 28.4871L60.9846 35.112L60.6119 35.4238L56.1008 23.497L56.7772 22.931L67.6938 29.4982L67.3349 29.7985L62.7547 17.9294L63.445 17.3519L68.2589 29.7529L67.5135 30.3766L56.9477 24.0323L57.1272 23.8821L61.5084 35.4013L60.7629 36.0251Z" fill="#888888"/>
<path d="M75.4041 26.491L69.525 15.3466L69.8434 15.1786L75.7225 26.323L75.4041 26.491Z" fill="#888888"/>
<path d="M84.2727 22.5568L81.1952 11.1942L76.8169 12.38L76.6005 11.5808L86.243 8.9692L86.4595 9.76841L82.0812 10.9542L85.1587 22.3168L84.2727 22.5568Z" fill="#888888"/>
<path d="M101.15 6.83622L102.064 6.75077L103.236 19.2961L102.322 19.3815L101.15 6.83622ZM93.935 20.1657L93.0209 20.2511L91.8481 7.70583L92.7621 7.62038L93.935 20.1657ZM101.872 13.4035L93.2695 14.2077L93.1941 13.4013L101.797 12.597L101.872 13.4035Z" fill="#888888"/>
<path d="M119.454 18.9889L121.198 6.51009L121.965 6.61721L129.273 19.2159L128.863 19.1586L130.45 7.80291L131.359 7.92995L129.616 20.4087L128.867 20.3041L121.54 7.70293L121.95 7.76022L120.363 19.1159L119.454 18.9889Z" fill="#888888"/>
<path d="M150.525 18.5192C150.338 18.4367 150.203 18.298 150.118 18.1032C150.05 17.9023 150.059 17.7031 150.146 17.5055C150.239 17.297 150.38 17.1561 150.57 17.0826C150.771 17.014 150.964 17.021 151.151 17.1036C151.348 17.1909 151.484 17.3296 151.557 17.5196C151.631 17.7095 151.621 17.9087 151.529 18.1172C151.442 18.3148 151.301 18.4557 151.106 18.5401C150.916 18.6136 150.722 18.6066 150.525 18.5192Z" fill="#888888"/>
<path d="M173.37 39.5121L177.816 26.9684L178.579 27.5708L174.309 39.5427L173.927 39.2415L184.681 32.3897L185.374 32.9363L181.174 44.964L180.807 44.6739L191.491 37.7664L192.197 38.3241L181.04 45.5692L180.278 44.9668L184.33 33.3281L184.514 33.4731L174.132 40.1145L173.37 39.5121Z" fill="#888888"/>
<path d="M185.899 49.3744L195.597 41.3301L196.183 42.0367L186.485 50.0809L185.899 49.3744Z" fill="#888888"/>
<path d="M192.646 57.8298L202.369 51.1928L199.812 47.4465L200.495 46.9797L206.128 55.2306L205.444 55.6974L202.886 51.951L193.164 58.588L192.646 57.8298Z" fill="#888888"/>
<path d="M213.878 68.6844L214.286 69.5069L202.996 75.1022L202.589 74.2797L213.878 68.6844ZM198.848 66.7318L198.44 65.9093L209.73 60.314L210.137 61.1366L198.848 66.7318ZM208.007 71.7147L204.171 63.9733L204.896 63.6136L208.733 71.355L208.007 71.7147Z" fill="#888888"/>
<path d="M207.115 87.8562L219.505 85.5698L219.646 86.331L210 97.2444L209.925 96.8373L221.201 94.7567L221.367 95.6595L208.976 97.9458L208.839 97.2024L218.482 86.2712L218.557 86.6784L207.281 88.7589L207.115 87.8562Z" fill="#888888"/>
<path d="M215.072 113.324C215.091 113.121 215.18 112.949 215.338 112.807C215.507 112.679 215.699 112.625 215.914 112.645C216.141 112.667 216.32 112.756 216.449 112.913C216.578 113.082 216.632 113.269 216.613 113.472C216.592 113.687 216.504 113.859 216.347 113.989C216.19 114.118 215.998 114.172 215.771 114.151C215.556 114.13 215.377 114.041 215.236 113.883C215.106 113.725 215.051 113.539 215.072 113.324Z" fill="#888888"/>
<path d="M206.663 143.945L219.958 144.545L219.604 145.451L206.908 144.852L207.085 144.4L216.771 152.692L216.45 153.514L203.721 152.999L203.891 152.563L213.611 160.772L213.283 161.61L203.103 153.047L203.457 152.142L215.771 152.63L215.686 152.848L206.309 144.85L206.663 143.945Z" fill="#888888"/>
<path d="M198.595 158.003L208.712 165.513L208.165 166.25L198.048 158.74L198.595 158.003Z" fill="#888888"/>
<path d="M192.132 169.583L201.5 176.712L204.247 173.102L204.906 173.604L198.856 181.554L198.197 181.052L200.944 177.443L191.576 170.313L192.132 169.583Z" fill="#888888"/>
<path d="M188.507 192.936L187.856 193.583L178.982 184.638L179.633 183.992L188.507 192.936ZM185.614 178.059L186.265 177.412L195.139 186.357L194.488 187.003L185.614 178.059ZM183.778 188.323L189.912 182.238L190.482 182.813L184.349 188.898L183.778 188.323Z" fill="#888888"/>
<path d="M164.938 194.481L171.02 205.515L170.343 205.889L156.941 200.183L157.304 199.984L162.839 210.025L162.035 210.468L155.953 199.434L156.615 199.069L170.032 204.766L169.669 204.965L164.134 194.924L164.938 194.481Z" fill="#888888"/>
<path d="M130.71 213.192C130.909 213.146 131.1 213.176 131.285 213.281C131.46 213.401 131.572 213.566 131.62 213.777C131.671 213.999 131.643 214.196 131.535 214.369C131.415 214.544 131.256 214.655 131.057 214.7C130.846 214.749 130.655 214.719 130.482 214.611C130.31 214.503 130.198 214.338 130.147 214.116C130.098 213.905 130.127 213.708 130.232 213.523C130.34 213.351 130.499 213.24 130.71 213.192Z" fill="#888888"/>
</svg>
