<svg width="145" height="24" viewBox="0 0 145 24" fill="none" xmlns="http://www.w3.org/2000/svg">
<path d="M47.4851 0H42.7109V24H47.4851V0Z" fill="white"/>
<path d="M66.4297 0H61.6555H52.05V4.77906H61.6555V24H66.4297V4.77906H76.0256V0H66.4297Z" fill="white"/>
<path d="M100.581 0V5.83578H85.688V0H80.9138V24H85.688V10.6148H100.581V24H105.355V0H100.581Z" fill="white"/>
<path d="M137.814 0V11.7192L122.921 0H118.147V24H122.921V6.0833L137.814 17.8025V24H142.588V0H137.814Z" fill="white"/>
<path d="M25.7159 18.4022L22.4919 11.5764L27.9603 0H22.6726L19.848 5.9881L17.0235 0H11.7357L17.2042 11.5764L13.9802 18.4022L5.27823 0H0L11.3363 23.9905V24H16.624V23.9905L19.848 17.1646L23.072 24H28.3598L39.6961 0H34.4083L25.7159 18.4022Z" fill="white"/>
</svg>
