<svg width="162" height="162" viewBox="0 0 162 162" fill="none" xmlns="http://www.w3.org/2000/svg">
<path d="M73.7697 148.174L75.3289 156.9L74.427 156.766L72.973 148.553L73.424 148.62L69.5491 156.037L68.7421 155.916L67.2406 147.696L67.6679 147.76L63.8524 155.185L63.0098 155.059L67.0523 147.17L67.978 147.309L69.4211 155.108L69.1837 155.072L72.8558 148.038L73.7697 148.174Z" fill="white"/>
<path d="M56.1471 144.492L53.2742 152.385L52.4397 152.082L55.3127 144.188L56.1471 144.492Z" fill="white"/>
<path d="M47.8123 140.445L44.2176 147.178L46.8216 148.568L46.4599 149.246L40.4685 146.047L40.8302 145.369L43.4342 146.76L47.029 140.027L47.8123 140.445Z" fill="white"/>
<path d="M32.4853 139.641L31.794 139.103L36.954 132.474L37.6453 133.013L32.4853 139.641ZM41.7927 136.241L42.4934 136.787L37.3334 143.415L36.6327 142.87L41.7927 136.241ZM35.198 136.019L39.4875 139.359L39.0083 139.974L34.7189 136.635L35.198 136.019Z" fill="white"/>
<path d="M26.7328 119.78L19.6483 124.293L19.255 123.676L22.2942 114.868L22.5005 115.191L16.3472 119.112L15.8765 118.373L22.961 113.859L23.3543 114.477L20.3086 123.275L20.1023 122.951L26.2557 119.031L26.7328 119.78Z" fill="white"/>
<path d="M12.3077 91.5736C12.347 91.7452 12.3185 91.9076 12.2223 92.061C12.1243 92.2065 11.9857 92.2998 11.8063 92.3409C11.6192 92.3838 11.4537 92.3601 11.3099 92.2699C11.1566 92.1737 11.0603 92.0398 11.021 91.8683C10.9799 91.6889 11.0084 91.5265 11.1063 91.3809C11.1965 91.2372 11.3352 91.1439 11.5223 91.101C11.7017 91.0599 11.8671 91.0836 12.0187 91.172C12.1703 91.2604 12.2666 91.3942 12.3077 91.5736Z" fill="white"/>
<path d="M13.7031 75.5102L5.03001 77.3428L5.13642 76.437L13.2998 74.7258L13.2466 75.1787L5.71184 71.5387L5.80704 70.7283L13.976 68.9694L13.9256 69.3984L6.38386 65.8181L6.48326 64.9719L14.4955 68.7646L14.3863 69.6942L6.63649 71.3815L6.66449 71.1432L13.8109 74.5925L13.7031 75.5102Z" fill="white"/>
<path d="M16.0085 58.2256L7.85801 56.1934L8.07284 55.3318L16.2233 57.364L16.0085 58.2256Z" fill="white"/>
<path d="M20.2669 49.5409L13.5918 45.8408L12.1607 48.4227L11.4889 48.0504L14.7818 42.11L15.4535 42.4823L14.0223 45.0642L20.6974 48.7642L20.2669 49.5409Z" fill="white"/>
<path d="M21.9706 34.0765L22.4868 33.3687L29.2739 38.3179L28.7578 39.0257L21.9706 34.0765ZM25.6609 43.2725L25.1377 43.99L18.3506 39.0408L18.8738 38.3233L25.6609 43.2725ZM25.6755 36.6741L22.4726 41.0664L21.8424 40.6068L25.0453 36.2146L25.6755 36.6741Z" fill="white"/>
<path d="M40.0238 27.8262L35.2902 20.887L35.8949 20.4745L44.7945 23.2355L44.4773 23.4519L40.3658 17.4246L41.0894 16.931L45.8231 23.8702L45.2184 24.2827L36.3287 21.5149L36.6459 21.2986L40.7574 27.3258L40.0238 27.8262Z" fill="white"/>
<path d="M58.5793 12.6761C58.4091 12.7208 58.2458 12.6974 58.0895 12.6061C57.9409 12.5127 57.8433 12.3771 57.7966 12.1991C57.7479 12.0134 57.7664 11.8473 57.852 11.7007C57.9433 11.5445 58.0741 11.444 58.2443 11.3993C58.4223 11.3526 58.5856 11.376 58.7341 11.4693C58.8807 11.5549 58.9783 11.6906 59.027 11.8763C59.0737 12.0543 59.0552 12.2204 58.9716 12.3747C58.8881 12.5289 58.7573 12.6294 58.5793 12.6761Z" fill="white"/>
<path d="M82.3121 13.2497L80.208 4.63851L81.1166 4.71641L83.0835 12.822L82.6291 12.7831L86.0306 5.13768L86.8436 5.20738L88.8583 13.3171L88.4279 13.2802L91.7696 5.62968L92.6184 5.70246L89.0793 13.8299L88.1467 13.7499L86.2168 6.05694L86.4559 6.07744L83.2327 13.3286L82.3121 13.2497Z" fill="white"/>
<path d="M96.9683 15.8681L99.4243 7.83517L100.273 8.09479L97.8175 16.1278L96.9683 15.8681Z" fill="white"/>
<path d="M106.345 19.3334L109.51 12.3886L106.823 11.1644L107.142 10.4656L113.322 13.2822L113.004 13.981L110.318 12.7568L107.153 19.7017L106.345 19.3334Z" fill="white"/>
<path d="M125.769 20.3901L126.492 20.8837L121.759 27.823L121.035 27.3293L125.769 20.3901ZM116.693 24.3674L115.959 23.867L120.693 16.9278L121.427 17.4282L116.693 24.3674ZM123.289 24.1747L118.798 21.1114L119.237 20.467L123.728 23.5303L123.289 24.1747Z" fill="white"/>
<path d="M134.015 38.3133L140.802 33.364L141.233 33.9555L138.753 42.9374L138.527 42.6271L144.422 38.3283L144.938 39.0361L138.151 43.9854L137.72 43.3939L140.207 34.4217L140.433 34.732L134.538 39.0308L134.015 38.3133Z" fill="white"/>
<path d="M147.589 56.5253C147.539 56.3566 147.558 56.1927 147.644 56.0336C147.733 55.8822 147.865 55.7803 148.041 55.7281C148.226 55.6735 148.392 55.6868 148.541 55.7677C148.7 55.8541 148.805 55.9817 148.855 56.1504C148.907 56.3268 148.889 56.4908 148.8 56.6422C148.719 56.7913 148.587 56.8932 148.403 56.9477C148.226 56.9999 148.06 56.9867 147.903 56.908C147.746 56.8293 147.642 56.7017 147.589 56.5253Z" fill="white"/>
<path d="M148.089 79.8068L156.629 77.4332L156.58 78.3439L148.54 80.5644L148.565 80.109L156.313 83.2687L156.269 84.0835L148.227 86.3519L148.25 85.9205L156.002 89.0203L155.956 89.871L147.721 86.5889L147.772 85.6543L155.4 83.4836L155.387 83.7233L148.039 80.7295L148.089 79.8068Z" fill="white"/>
<path d="M146.09 94.3569L154.227 96.4416L154.007 97.3018L145.87 95.2172L146.09 94.3569Z" fill="white"/>
<path d="M143.312 104.061L150.353 107.006L151.492 104.283L152.2 104.579L149.579 110.845L148.871 110.549L150.01 107.825L142.969 104.88L143.312 104.061Z" fill="white"/>
<path d="M144.164 123.55L143.693 124.288L136.609 119.775L137.079 119.036L144.164 123.55ZM139.903 114.604L140.381 113.855L147.465 118.368L146.988 119.117L139.903 114.604ZM140.303 121.19L143.224 116.605L143.882 117.024L140.961 121.609L140.303 121.19Z" fill="white"/>
<path d="M125.269 132.471L130.429 139.099L129.851 139.549L120.796 137.352L121.099 137.116L125.581 142.873L124.89 143.412L119.73 136.783L120.307 136.334L129.353 138.538L129.05 138.774L124.568 133.017L125.269 132.471Z" fill="white"/>
<path d="M98.738 146.761C98.9051 146.705 99.0695 146.718 99.2312 146.8C99.3853 146.883 99.4913 147.013 99.549 147.187C99.6093 147.37 99.6013 147.537 99.5251 147.688C99.4437 147.85 99.3195 147.959 99.1524 148.014C98.9777 148.072 98.8133 148.059 98.6592 147.975C98.5076 147.898 98.4016 147.769 98.3414 147.587C98.2836 147.412 98.2916 147.245 98.3653 147.086C98.439 146.927 98.5633 146.818 98.738 146.761Z" fill="white"/>
</svg>
